<?xml version="1.0" encoding="UTF-8"?>
<svg id="Lag_2" data-name="Lag 2" xmlns="http://www.w3.org/2000/svg" viewBox="0 0 4544.86 5666.33">
  <defs>
    <style>
      .cls-1 {
        fill: none;
        stroke: #f28a19;
        stroke-miterlimit: 10;
        stroke-width: 4px;
      }
    </style>
  </defs>
  <g id="Lag_1-2" data-name="Lag 1">
    <path class="cls-1" d="M3143.99,5405.84c-120.7-123.14-177.38-275.25-274.43-535.73-83.86-225.07-127.6-338.23-100.49-412.86,104.54-287.82,644.78-166.38,797.39-499.81,65.39-142.87,36.33-320.93-28.43-434.67-96.1-168.79-245.44-154.49-382.29-306.16-60.26-66.78-133.45-182.74-156.38-580.32-35.13-609.17-59.32-939.94,164.32-1112.94,228.75-176.95,645.04-135.82,897.04,63.27,243.43,192.33,147.7,385.24,369.46,1504.06,99.23,500.62,164.57,686.72,57.88,938.93-107.53,254.2-363.84,528.26-578.79,495.19-130.41-20.07-171.01-141.7-300.95-132.69-124.49,8.63-255.91,131.97-284.27,254.88-87.42,378.84,801.92,763.82,726.7,938.93-54.83,127.65-612.23,120.44-906.77-180.07Z"/>
    <path class="cls-1" d="M2360.85,3390.72c-6.11,6.7-126.9,143.55-82.01,316.56,40.16,154.8,192.02,257.82,323.96,258.34,260.72,1.03,474.53-398.11,369.06-574.9-91.3-153.05-446.31-180.42-611.01,0Z"/>
    <path class="cls-1" d="M424.52,1268.95c289.38,440.63,301.82,431.21,330.46,516.72,124.4,371.53-128.77,494.55-71.55,898.3,74.09,522.73,554.68,713.01,451.16,987.06-69.31,183.49-295.35,126.22-393.1,348.28-118.15,268.37,105.83,471.74-18.31,675.91-148.71,244.57-594.29,120.7-642.41,287.42-38.2,132.35,192.28,384.77,395.23,368.37,271.9-21.98,360.91-515.69,571.74-495,97.04,9.52,115.3,117.76,230.23,237.9,324.92,339.65,1024.59,358.54,1185.41,112.39,64.08-98.08,56.9-260.69,0-375.58-42.52-85.86-109.56-130.83-135.32-151.57-404.05-325.18-1021.78,39.68-1160.5-168.13-85.91-128.69,41.56-432.55,233.74-541.29,174.81-98.92,348.8-5.64,451.08-135.32,54.72-69.39,63.11-169.88,36.91-250.14-38.45-117.76-163.74-166.47-213.24-193.54-376.83-206.08-389.85-1233.29-181.75-1302.96,184.1-61.64,464.06,651.91,683.66,588.27,231.74-67.16-25.17-877.61,373.63-1415.02,262-353.07,1186.02-493.24,1312.94-522.41,80.6-18.53,255.48-55.95,273.38-148.8,17.72-91.89-119.83-230.29-273.38-269.19-252.2-63.89-368.54,185.98-796.68,269.24-206.22,40.1-519.68,48.34-592.32-89.75-57.1-108.54,77.07-226.73,26.86-293.8-103.94-138.84-856.21,130.97-849.1,378.99,4.92,171.68,370.06,205.69,373.63,373.63,4.43,208.29-549.55,517.92-886.66,357.73-309.02-146.84-231-591.16-579.37-726.85-167.26-65.15-385.23-40.63-441.26,59.4-37.66,67.24,2.8,159.76,304.91,619.76Z"/>
    <path class="cls-1" d="M4045.71,3330.66c-152.16,79.64-522.67-228.93-644.9-588.33-13.3-39.11-112.58-331.03,0-418.62,118.01-91.82,440.49,62.94,599.65,299.82,169.84,252.8,179.15,637.04,45.26,707.13Z"/>
    <path class="cls-1" d="M1726.33,2589.59c94.08.5,183.77,95.5,164.05,181.02-17.06,74.04-111.6,121.39-192.34,101.83-70.8-17.15-137.89-87.42-124.45-166.13,12.49-73.18,88.33-117.06,152.74-116.72Z"/>
    <path class="cls-1" d="M261.16,3615.55c124.68,44.28,294.3-31.94,362.05-143.46,92.91-152.93-9.76-365.67-73.54-497.82-169.61-351.45-378.98-376.58-373.36-554.39,7.2-227.83,353.98-283.49,356.39-520.45,1.71-167.81-170.09-348.04-282.85-328.11-192.58,34.04-225.93,654.22-237.6,871.18-13.82,256.97-57.23,1064.31,248.91,1173.04Z"/>
    <path class="cls-1" d="M1658.44,1650.52c-2,98.73,43.6,242.46,135.77,265.88,230.52,58.58,691.45-650.89,588.33-763.7-90.2-98.68-716.94,144.35-724.1,497.82Z"/>
    <path class="cls-1" d="M764.63,38.26c-107.5,87.23-82.17,349.4,67.88,441.25,68.65,42.02,175.54,55.81,260.22,0,94.63-62.37,121.36-185.18,96.17-273.21-49.62-173.42-313.8-257.69-424.28-168.04Z"/>
  </g>
</svg>