<?xml version="1.0" encoding="UTF-8"?>
<svg id="Lag_2" data-name="Lag 2" xmlns="http://www.w3.org/2000/svg" viewBox="0 0 444.37 535.09">
  <defs>
    <style>
      .cls-1 {
        fill: #1d1d1b;
      }

      .cls-2 {
        fill: #fff;
      }
    </style>
  </defs>
  <g id="Lag_1-2" data-name="Lag 1">
    <g>
      <path class="cls-1" d="M345.28,95.18c2.47-4.86,13.45-26.44,15.93-31.31,2.72-5.34,14.03-27.6,16.74-32.94l54.45,27.22c-5.44,10.34-10.34,20.14-15.24,29.94,7.08-1.09,14.7-1.63,22.32-2.18l4.9,54.99c-19.6,1.63-39.2,3.27-58.26,5.44C241.29,418.04,173.23,489.36,75.23,535.09l-23.96-50.63c83.3-37.57,152.45-123.59,262.43-329.94-10.57,1.56-21.16,3.1-31.78,4.63-42.57,6.1-84.79,11.77-126.65,17.03,4.04-18.57,8.07-37.13,12.11-55.7,41.54-6.55,83.74-12.75,126.59-18.57,17.19-2.33,34.3-4.58,51.31-6.74Z"/>
      <path class="cls-2" d="M307.88,67.28c2.59-5.09,14.09-27.69,16.68-32.78,2.84-5.59,14.69-28.9,17.53-34.49l57.02,28.51c-5.7,10.83-10.83,21.1-15.96,31.36,7.41-1.14,15.39-1.71,23.38-2.28l5.13,57.59c-20.53,1.71-41.05,3.42-61.01,5.7C198.98,405.38,127.72,480.07,25.09,527.97L0,474.94c87.23-39.34,159.64-129.43,274.82-345.52-11.06,1.64-22.16,3.25-33.28,4.85-44.58,6.39-88.79,12.33-132.63,17.83,4.23-19.44,8.45-38.89,12.68-58.33,43.5-6.86,87.69-13.35,132.57-19.44,18-2.44,35.92-4.79,53.74-7.06Z"/>
    </g>
  </g>
</svg>