<?xml version="1.0" encoding="UTF-8"?>
<svg id="Lag_2" data-name="Lag 2" xmlns="http://www.w3.org/2000/svg" viewBox="0 0 1388.1 535.09">
  <defs>
    <style>
      .cls-1 {
        fill: #1d1d1b;
      }

      .cls-2 {
        fill: #fff;
      }
    </style>
  </defs>
  <g id="Lag_1-2" data-name="Lag 1">
    <g>
      <g>
        <path class="cls-1" d="M345.28,95.18c2.47-4.86,13.45-26.44,15.93-31.31,2.72-5.34,14.03-27.6,16.74-32.94l54.45,27.22c-5.44,10.34-10.34,20.14-15.24,29.94,7.08-1.09,14.7-1.63,22.32-2.18l4.9,54.99c-19.6,1.63-39.2,3.27-58.26,5.44C241.29,418.04,173.23,489.36,75.23,535.09l-23.96-50.63c83.3-37.57,152.45-123.59,262.43-329.94-10.57,1.56-21.16,3.1-31.78,4.63-42.57,6.1-84.79,11.77-126.65,17.03,4.04-18.57,8.07-37.13,12.11-55.7,41.54-6.55,83.74-12.75,126.59-18.57,17.19-2.33,34.3-4.58,51.31-6.74Z"/>
        <path class="cls-1" d="M296.99,300.86c27.77-48.46,89.29-87.11,154.08-87.11,46.28,0,68.6,23.96,68.6,59.89,0,90.38-111.61,155.71-202.54,155.71-54.99,0-84.39-28.31-84.39-65.88,0-26.68,17.42-53.9,51.18-76.77l13.07,14.16ZM440.18,264.39c-39.74,0-104.53,46.28-104.53,90.92,0,6.53,1.09,13.07,4.36,19.06,53.9-6.53,118.15-50.63,118.15-92.01,0-11.98-5.99-17.97-17.97-17.97Z"/>
        <path class="cls-1" d="M559.05,332.99c98-90.38,127.95-116.51,171.5-116.51,31.58,0,49,17.97,49,42.47,0,14.7-5.99,29.94-23.41,59.35-14.16,24.5-28.86,43.56-28.86,52.27,0,2.72,2.18,4.36,5.44,4.36,9.8,0,27.22-4.9,57.71-20.14l20.69,46.82c-32.67,18.51-68.6,27.77-93.1,27.77-36.48,0-54.45-14.16-54.45-45.73,0-23.96,11.43-45.19,41.92-91.47,8.71-13.61,10.89-17.42,10.89-19.06,0-1.09-1.09-1.63-2.18-1.63-15.79,0-68.6,53.9-182.94,157.89l-22.32-25.59-45.73-27.22c61.52-95.28,76.77-125.22,83.85-170.41l59.89,7.62c-3.81,35.93-15.24,65.33-47.91,119.23Z"/>
        <path class="cls-1" d="M1042.5,429.35c-27.77,0-44.65-9.26-44.65-33.76,0-21.78,17.97-38.11,17.97-44.1,0-1.63-1.09-2.72-3.27-2.72-4.9,0-19.6,9.8-34.3,17.42-83.3,44.65-105.08,53.9-136.66,53.9-37.57,0-57.17-17.42-57.17-54.99,0-72.41,94.19-144.82,175.31-144.82,54.99,0,87.66,22.32,87.66,68.06v4.36c20.69,4.9,30.49,17.97,30.49,35.93,0,20.14-19.6,35.93-19.6,42.47,0,1.63.54,3.27,4.9,3.27,16.33,0,52.27-19.06,96.91-50.09l28.86,44.1c-54.99,39.2-107.26,60.98-146.46,60.98ZM855.21,364.02c11.43,0,29.4-8.71,96.37-44.65,11.98-6.53,25.04-12.52,37.02-17.97.54-1.63.54-3.27.54-4.9,0-14.7-10.89-21.78-29.94-21.78-47.91,0-112.16,46.28-112.16,80.58,0,6.53,3.27,8.71,8.17,8.71Z"/>
        <path class="cls-1" d="M1285.33,260.69c-10.34,0-16.33,5.44-16.33,16.33,0,23.96,10.89,52.27,10.89,81.67,0,50.09-39.74,69.69-73.5,69.69-35.93,0-65.33-20.69-91.47-56.62,15.06-15.83,30.12-31.66,45.19-47.49,2.55,3.46,37.25,50.18,48.46,49.67,4.68-.21,7.21-2.59,7.21-2.59,1.97-1.84,3.14-4.63,3.14-8.3,0-20.14-11.43-56.62-11.43-88.2,0-38.11,28.86-68.6,76.77-68.6,31.58,0,60.98,10.89,92.56,36.48l-37.02,44.1c-25.04-19.6-40.83-26.13-54.45-26.13Z"/>
      </g>
      <g>
        <path class="cls-2" d="M307.88,67.28c2.59-5.09,14.09-27.69,16.68-32.78,2.84-5.59,14.69-28.9,17.53-34.49l57.02,28.51c-5.7,10.83-10.83,21.1-15.96,31.36,7.41-1.14,15.39-1.71,23.38-2.28l5.13,57.59c-20.53,1.71-41.05,3.42-61.01,5.7C198.98,405.38,127.72,480.07,25.09,527.97L0,474.94c87.23-39.34,159.64-129.43,274.82-345.52-11.06,1.64-22.16,3.25-33.28,4.85-44.58,6.39-88.79,12.33-132.63,17.83,4.23-19.44,8.45-38.89,12.68-58.33,43.5-6.86,87.69-13.35,132.57-19.44,18-2.44,35.92-4.79,53.74-7.06Z"/>
        <path class="cls-2" d="M257.32,282.68c29.08-50.74,93.51-91.23,161.35-91.23,48.46,0,71.84,25.09,71.84,62.72,0,94.65-116.88,163.06-212.1,163.06-57.59,0-88.37-29.65-88.37-68.99,0-27.94,18.25-56.45,53.59-80.39l13.68,14.82ZM407.27,244.47c-41.62,0-109.47,48.46-109.47,95.22,0,6.84,1.14,13.68,4.56,19.96,56.45-6.84,123.72-53.02,123.72-96.36,0-12.54-6.27-18.82-18.82-18.82Z"/>
        <path class="cls-2" d="M531.74,316.31c102.63-94.65,133.99-122.01,179.6-122.01,33.07,0,51.31,18.82,51.31,44.47,0,15.39-6.27,31.36-24.52,62.15-14.82,25.66-30.22,45.61-30.22,54.74,0,2.85,2.28,4.56,5.7,4.56,10.26,0,28.51-5.13,60.44-21.1l21.67,49.03c-34.21,19.39-71.84,29.08-97.5,29.08-38.2,0-57.02-14.82-57.02-47.89,0-25.09,11.97-47.32,43.9-95.79,9.12-14.25,11.4-18.25,11.4-19.96,0-1.14-1.14-1.71-2.28-1.71-16.53,0-71.84,56.45-191.57,165.35l-23.38-26.8-47.89-28.51c64.43-99.78,80.39-131.14,87.8-178.46l62.72,7.98c-3.99,37.63-15.96,68.42-50.17,124.86Z"/>
        <path class="cls-2" d="M1038.02,417.23c-29.08,0-46.75-9.69-46.75-35.35,0-22.81,18.82-39.91,18.82-46.18,0-1.71-1.14-2.85-3.42-2.85-5.13,0-20.53,10.26-35.92,18.25-87.23,46.75-110.04,56.45-143.11,56.45-39.34,0-59.87-18.25-59.87-57.59,0-75.83,98.64-151.66,183.59-151.66,57.59,0,91.8,23.38,91.8,71.27v4.56c21.67,5.13,31.93,18.82,31.93,37.63,0,21.1-20.53,37.63-20.53,44.47,0,1.71.57,3.42,5.13,3.42,17.1,0,54.74-19.96,101.49-52.45l30.22,46.18c-57.59,41.05-112.32,63.86-153.37,63.86ZM841.89,348.81c11.97,0,30.79-9.12,100.92-46.75,12.54-6.84,26.23-13.11,38.77-18.82.57-1.71.57-3.42.57-5.13,0-15.39-11.4-22.81-31.36-22.81-50.17,0-117.45,48.46-117.45,84.38,0,6.84,3.42,9.12,8.55,9.12Z"/>
        <path class="cls-2" d="M1292.32,240.61c-10.83,0-17.1,5.7-17.1,17.1,0,25.09,11.4,54.74,11.4,85.52,0,52.45-41.62,72.98-76.97,72.98-37.63,0-68.42-21.67-95.79-59.3,15.77-16.58,31.55-33.15,47.32-49.73,2.67,3.63,39,52.55,50.75,52.01,4.9-.22,7.55-2.71,7.55-2.71,2.06-1.92,3.29-4.85,3.29-8.69,0-21.1-11.97-59.3-11.97-92.37,0-39.91,30.22-71.84,80.39-71.84,33.07,0,63.86,11.4,96.93,38.2l-38.77,46.18c-26.23-20.53-42.76-27.37-57.02-27.37Z"/>
      </g>
    </g>
  </g>
</svg>