<?xml version="1.0" encoding="UTF-8"?><svg id="Lag_1" xmlns="http://www.w3.org/2000/svg" width="1920" height="1080" viewBox="0 0 1920 1080"><defs><style>.cls-1{fill:#f1891a;}.cls-2{fill:#206d7e;}</style></defs><path class="cls-1" d="m2659.1959,660.8952h-4.1158c-5.4877-101.6866-28.8104-205.7944-20.5788-306.2705,10.7828-153.2902,12.1467-305.6571,1.3552-457.9071-4.9779.2848-9.9558.5525-14.9337.815l1.5796,873.9309-1.5796-873.9309c-87.3927,4.6068-174.7853,5.9284-262.1778,9.1867-189.3252,8.4739-380.0224-3.6317-569.3477-8.4739-69.968-2.4211-139.9361-1.2106-209.9041-4.8422-2.7438,0-4.1158-3.6317-6.8596-3.6317-149.5395-2.4211-299.079-2.4211-448.6185,0-4.1158,0-6.8596,3.6317-10.9754,3.6317-352.584-1.2106-705.1679-8.4739-1057.7519-3.6317-4.1158,0-6.8596,3.6317-10.9754,3.6317-19.8714,1.2988-40.1373,1.2032-60.3748,1.0232l.01,762.6339c33.8563,62.7217,133.0803,233.2667,263.2417,233.7569,111.0755.4183,149.7082-123.33,276.8891-122.1606,125.8444,1.1571,152.9125,122.9148,276.8891,122.1606,123.7354-.7528,149.5629-122.3584,272.2743-122.1606,123.2564.1988,150.2348,122.9727,272.2743,122.1606,121.2965-.8071,145.6691-122.4303,267.6595-124.1966,124.3135-1.7999,152.3882,123.7264,279.1965,124.1966,125.8286.4665,153.2463-122.9235,279.1965-122.1606,125.1313.7579,151.3075,122.8713,274.5819,122.1606,79.47-.4582,119.8978-51.4939,172.7706-87.4555,13.3277-9.0648,27.446-17.1719,43.1797-23.2696-.5408-39.8-2.0108-79.7549-2.9048-119.1968Z"/><path class="cls-2" d="m2600.2032-122.3341c-294.9632,3.6317-588.5546,6.0528-883.5178,2.4211-2.7438,0-6.8596-3.6317-9.6035-4.8422-100.1503-6.0528-198.9287-8.4739-297.7071-15.7372-203.0445-15.7372-403.3451,1.2106-605.0176-9.6844-119.3572-6.0528-235.9706-2.4211-353.9559-6.0528-16.4631-1.2106-34.2981-6.0528-50.7611-6.0528-63.1084-2.4211-124.8449-7.2633-187.9533,2.4211-77.7346,10.8302-151.4047,16.8684-227.7434,15.7507l.0006,975.1196c38.8464,34.4772,84.1683,59.6203,134.0302,59.808,111.0756.4183,149.7082-123.33,276.8892-122.1606,125.8444,1.1571,152.9125,122.9148,276.8891,122.1606,123.7354-.7528,149.5629-122.3584,272.2743-122.1606,123.2564.1988,150.2348,122.9727,272.2743,122.1606,121.2965-.8071,145.669-122.4303,267.6595-124.1966,124.3135-1.7999,152.3882,123.7264,279.1965,124.1966,125.8286.4665,153.2463-122.9235,279.1965-122.1606,125.1313.7579,151.3075,122.8713,274.5819,122.1606,121.4573-.7002,151.7032-119.5609,274.5817-122.1606,10.7957-.2284,21.1112.4681,30.9835,1.9314l-1.6148-893.3394c-6.8569.267-13.7423.4174-20.6827.4174Z"/></svg>