<?xml version="1.0" encoding="UTF-8"?><svg id="Lag_1" xmlns="http://www.w3.org/2000/svg" width="1920" height="1080" xmlns:xlink="http://www.w3.org/1999/xlink" viewBox="0 0 1920 1080"><defs><style>.cls-1{fill:#f1891a;filter:url(#drop-shadow-1);}.cls-2{fill:#206d7e;filter:url(#drop-shadow-2);}</style><filter id="drop-shadow-1" filterUnits="userSpaceOnUse"><feOffset dx="3" dy="3"/><feGaussianBlur result="blur" stdDeviation="9"/><feFlood flood-color="#1d1d1b" flood-opacity=".5"/><feComposite in2="blur" operator="in"/><feComposite in="SourceGraphic"/></filter><filter id="drop-shadow-2" filterUnits="userSpaceOnUse"><feOffset dx="3" dy="3"/><feGaussianBlur result="blur-2" stdDeviation="9"/><feFlood flood-color="#1d1d1b" flood-opacity=".5"/><feComposite in2="blur-2" operator="in"/><feComposite in="SourceGraphic"/></filter></defs><path class="cls-1" d="m1950,611h-3c-4-84-21-170-15-253,7.8596-126.628,8.8538-252.4933.9878-378.262-3.6284.2352-7.2568.4564-10.8853.6732l1.1514,721.9257-1.1514-721.9257c-63.7009,3.8055-127.4017,4.8972-191.1025,7.5888-138,7-277-3-415-7-51-2-102-1-153-4-2,0-3-3-5-3-109-2-218-2-327,0-3,0-5,3-8,3-257-1-514-7-771-3-3,0-5,3-8,3-14.4843,1.0729-29.2563.9939-44.0074.8452L-.0002,607.832c24.678,51.8124,97.0028,192.694,191.878,193.0989,80.9634.3455,109.1229-101.8788,201.8257-100.9128,91.7285.9559,111.4586,101.5359,201.8257,100.9128,90.1913-.6219,109.017-101.0763,198.4619-100.9128,89.8422.1642,109.5068,101.5837,198.4619,100.9128,88.4136-.6667,106.1788-101.1356,195.0981-102.5947,90.6127-1.4869,111.0764,102.2064,203.5076,102.5947,91.717.3854,111.7019-101.5431,203.5076-100.9128,91.2087.6261,110.2887,101.4999,200.1439,100.9128,57.926-.3785,87.394-42.5374,125.9332-72.2441,9.7146-7.4882,20.0055-14.1851,31.4739-19.2223-.3942-32.8775-1.4657-65.8829-2.1173-98.4645Z"/><path class="cls-2" d="m1907-36c-215,3-429,5-644,2-2,0-5-3-7-4-73-5-145-7-217-13-148-13-294,1-441-8-87-5-172-2-258-5-12-1-25-5-37-5-46-2-91-6-137,2C109.3389-58.0535,55.6404-53.0656-.0032-53.9888l.0004,805.5143c28.3153,28.4805,61.3506,49.2504,97.6952,49.4055,80.9635.3455,109.123-101.8788,201.8257-100.9128,91.7285.9559,111.4586,101.5359,201.8257,100.9128,90.1913-.6219,109.017-101.0763,198.4619-100.9128,89.8422.1642,109.5068,101.5837,198.4619,100.9128,88.4136-.6667,106.1788-101.1356,195.0981-102.5947,90.6127-1.4869,111.0764,102.2064,203.5076,102.5947,91.717.3854,111.7019-101.5431,203.5076-100.9128,91.2087.6261,110.2887,101.4999,200.1439,100.9128,88.5308-.5784,110.5771-98.7653,200.1438-100.9128,7.869-.1887,15.3881.3867,22.584,1.5955l-1.177-737.9584c-4.998.2206-10.0168.3448-15.0757.3448Z"/></svg>