<?xml version="1.0" encoding="UTF-8"?><svg id="Lag_2" xmlns="http://www.w3.org/2000/svg" width="562.86mm" height="255.57mm" viewBox="0 0 1595.52 724.45"><defs><style>.cls-1{fill:#f28a19;stroke:#d07316;stroke-miterlimit:10;stroke-width:5px;}</style></defs><g id="Lag_1-2"><path class="cls-1" d="m1593.01,382.19c-.76,142.12-75.61,265.6-185.64,329.25l-27.84-51.12c-18.03-33.09-11.56-74.71,14.89-100.74,45.43-44.72,73.89-108.63,73.89-179.59,0-134.84-101.94-243.88-229.08-244.96h-2.79c-73.7.09-147.42.17-221.11.24v164.81h132.62c45.69,0,82.73,37.04,82.73,82.73v41.6h-215.35v214.83c0,45.69-37.04,82.73-82.73,82.73h-41.6v-297.55h-203.2c-14.44,84.12-57.67,158.2-119.03,211.42-61.93,53.72-142.34,86.13-230.21,86.13-155.12,0-286.99-101.04-335.06-241.87h97.05c22.93,0,44.44,10.75,58.85,28.86,42.19,53.02,106.76,86.89,179.16,86.89,105.94,0,195.14-72.61,221.97-171.43h-66.56c-45.69,0-82.73-37.04-82.73-82.73v-41.6h157.53v-171.43H135.74c-41.6,0-75.33-34.22-75.33-76.44V2.5h549.94c45.69,0,82.73,37.58,82.73,83.93v213.65h197.93V85.49c0-45.69,37.04-82.73,82.73-82.73h263.42c2.48,0,4.96.02,7.45.07,2.81.05,5.6.14,8.37.28,189.82,8.7,341.14,176.58,340.05,379.07Z"/></g></svg>