<?xml version="1.0" encoding="UTF-8"?><svg id="Lag_2" xmlns="http://www.w3.org/2000/svg" width="483.56mm" height="342.23mm" viewBox="0 0 1370.71 970.1"><defs><style>.cls-1{fill:#f28a19;stroke-width:0px;}</style></defs><g id="Lag_1-2"><path class="cls-1" d="m1370.71,96.41v873.69h0c-76.07,0-137.73-61.66-137.73-137.73V137.73h-246.75v269.97h128.16c17.93,23.11,35.85,46.22,53.78,69.33-17.93,22.79-35.85,45.6-53.78,68.4h-592.36v284.6c0,67.99-55.11,123.1-123.1,123.1H0v-271.04h41.32c53.25,0,96.41,43.17,96.41,96.41v13.24h246.57v-246.31h-116.51c-17.93-23.11-35.87-46.22-53.78-69.32,17.92-22.81,35.85-45.6,53.78-68.41h580.73v-23.21h-.03V0h425.8c53.25,0,96.41,43.17,96.41,96.41Z"/><path class="cls-1" d="m522.03,0v384.49h-137.73v-246.76h-246.57C61.66,137.73,0,76.07,0,0h0s522.03,0,522.03,0Z"/><path class="cls-1" d="m848.49,568.64h137.73v246.76c0,76.02-61.72,137.73-137.73,137.73h0v-384.49h0Z"/></g></svg>